<?xml version="1.0"?>
<svg xmlns="http://www.w3.org/2000/svg" height="512px" viewBox="0 0 504.36404 504" width="512px"><path d="m462.363281.183594c-11.140625-.039063-21.828125 4.382812-29.6875 12.277344l-46.105469 46.164062-1.359374 1.367188-116.90625 116.929687c-76.394532-46.394531-175.410157-28.40625-230.605469 41.898437-55.191407 70.300782-49.167969 170.757813 14.035156 233.957032 63.199219 63.203125 163.65625 69.230468 233.957031 14.035156 70.304688-55.195312 88.292969-154.210938 41.898438-230.605469l116.96875-116.898437 1.371094-1.359375 46.121093-46.105469c12.019531-12 15.617188-30.0625 9.117188-45.757812-6.5-15.691407-21.820313-25.917969-38.804688-25.902344zm-23.738281 101.316406-35.613281-35.613281 11.867187-11.867188 35.617188 35.613281zm-11.867188 11.867188-115.703124 115.644531-24.339844 24.34375-14.269532 14.265625-35.582031-35.527344 38.609375-38.609375 115.671875-115.730469zm-132.265624 222.554687h7.96875c-1.066407 16.363281-5.34375 32.359375-12.59375 47.070313l-6.898438-3.980469c-4.011719-2.28125-9.109375-.894531-11.417969 3.101562-2.304687 3.992188-.953125 9.101563 3.023438 11.4375l6.984375 4.027344c-9.15625 13.625-20.871094 25.339844-34.496094 34.496094l-4.027344-6.980469c-1.492187-2.621094-4.269531-4.238281-7.28125-4.246094-3.011718-.007812-5.796875 1.601563-7.296875 4.210938-1.5 2.613281-1.484375 5.828125.039063 8.425781l3.976562 6.898437c-14.714844 7.261719-30.71875 11.550782-47.09375 12.617188v-7.964844c0-4.636718-3.757812-8.394531-8.394531-8.394531-4.632813 0-8.390625 3.757813-8.390625 8.394531v7.964844c-16.367188-1.0625-32.363281-5.34375-47.070312-12.589844l3.976562-6.898437c2.28125-4.011719.894531-9.113281-3.101562-11.417969-3.992188-2.308594-9.101563-.957031-11.4375 3.023438l-4.027344 6.984374c-13.625-9.160156-25.339844-20.875-34.496094-34.5l6.984375-4.027343c2.617187-1.488281 4.238281-4.265625 4.242187-7.277344.007813-3.011719-1.601562-5.796875-4.210937-7.296875-2.613281-1.5-5.828125-1.484375-8.425781.035156l-6.898438 3.980469c-7.261718-14.714844-11.546875-30.71875-12.617187-47.09375h7.964843c4.636719 0 8.394532-3.761719 8.394532-8.394531 0-4.636719-3.757813-8.394532-8.394532-8.394532h-7.964843c1.0625-16.363281 5.34375-32.359374 12.589843-47.070312l6.898438 3.980469c2.601562 1.519531 5.816406 1.535156 8.425781.035156 2.613281-1.5 4.222657-4.285156 4.214844-7.296875s-1.628906-5.789062-4.246094-7.277344l-6.984375-4.027344c9.160156-13.625 20.875-25.339843 34.5-34.5l4.027344 6.984376c1.488281 2.617187 4.265625 4.238281 7.277344 4.246093 3.011718.003907 5.796875-1.601562 7.296875-4.214843 1.5-2.609376 1.488281-5.824219-.035157-8.425782l-3.980468-6.898437c14.71875-7.257813 30.722656-11.546875 47.097656-12.613281v7.964843c0 4.632813 3.757812 8.390625 8.390625 8.390625 4.636719 0 8.394531-3.757812 8.394531-8.390625v-8.117187c15.917969 1.074218 31.484375 5.171875 45.871094 12.070312l-12.1875 12.1875-.066406.089844c-.734375.726562-1.324219 1.578125-1.746094 2.519531l-32.164062 75.035157c-6.175782-2.257813-13.007813-1.867188-18.886719 1.078124l-58.820313-58.824218c-3.292968-3.179688-8.527344-3.132813-11.765625.101562-3.238281 3.238282-3.285156 8.472656-.101562 11.769532l58.8125 58.8125c-1.644531 3.359374-2.503907 7.046874-2.519531 10.785156.042968 10.632812 6.761718 20.089844 16.789062 23.636718v60.296876c0 4.636718 3.757812 8.394531 8.390625 8.394531 4.636719 0 8.394531-3.757813 8.394531-8.394531v-60.296876c6.28125-2.121093 11.445313-6.679687 14.332032-12.648437 2.882812-5.972656 3.246093-12.847656 1.003906-19.089844l75.035156-32.164062c.941406-.421875 1.792969-1.011719 2.519531-1.746094l.09375-.066406 12.183594-12.1875c6.898437 14.386719 10.992187 29.953125 12.0625 45.871093h-8.117187c-4.632813 0-8.390626 3.757813-8.390626 8.394532 0 4.632812 3.757813 8.394531 8.390626 8.394531zm-36.753907-59.199219-52.40625 22.460938 22.457031-52.410156zm-80.753906 59.199219c-3.378906 0-6.433594-2.023437-7.742187-5.140625-1.3125-3.117188-.625-6.714844 1.742187-9.128906h.125l.066406-.101563c2.707031-2.671875 6.871094-3.1875 10.148438-1.257812 3.277343 1.925781 4.851562 5.816406 3.832031 9.480469-1.015625 3.664062-4.367188 6.183593-8.171875 6.148437zm0 151.078125c-66.964844.011719-126.804687-41.816406-149.800781-104.710938-22.996094-62.894531-4.25-133.457031 46.929687-176.644531 51.179688-43.1875 123.890625-49.796875 182.023438-16.550781l-12.398438 12.386719c-43.125-22.964844-95.035156-22.121094-137.390625 2.234375-.226562.109375-.480468.109375-.707031.234375-.242187.195312-.476563.402343-.695313.621093-21.027343 12.363282-38.550781 29.890626-50.914062 50.914063-.222656.222656-.429688.453125-.621094.699219-.128906.226562-.128906.46875-.234375.703125-25.171875 43.730469-25.171875 97.550781 0 141.277343.105469.238282.105469.480469.234375.707032.261719.40625.558594.792968.886719 1.148437 12.355469 20.824219 29.78125 38.183594 50.648437 50.460938.21875.222656.453126.429687.695313.621093.3125.179688.65625.261719.972656.40625 43.597657 24.945313 97.144531 24.945313 140.742188 0 .320312-.144531.664062-.226562.972656-.40625.246094-.191406.476563-.398437.699219-.621093 20.867187-12.277344 38.289062-29.636719 50.644531-50.460938.328125-.355469.625-.742187.890625-1.148437.125-.226563.125-.46875.234375-.707032 24.359375-42.355468 25.199219-94.265624 2.234375-137.390624l12.386719-12.398438c28.21875 49.355469 28.023437 110-.503907 159.175781-28.527343 49.175781-81.078124 79.445313-137.929687 79.449219zm303.199219-427.03125-17.820313 17.800781-35.621093-35.621093 17.800781-17.808594c9.984375-9.492188 25.65625-9.492188 35.640625 0 9.8125 9.847656 9.8125 25.78125 0 35.628906zm0 0" fill="#FF4379"/><path d="m379.265625 133.636719c2.226563 0 4.363281-.882813 5.9375-2.457031l11.867187-11.871094c2.179688-2.105469 3.058594-5.226563 2.289063-8.160156-.769531-2.933594-3.058594-5.226563-5.996094-5.996094-2.933593-.765625-6.054687.109375-8.160156 2.289062l-11.871094 11.867188c-2.398437 2.402344-3.117187 6.011718-1.816406 9.148437 1.296875 3.136719 4.359375 5.179688 7.75 5.179688zm0 0" fill="#FF4379"/><path d="m272.445312 232.066406c3.277344 3.277344 8.589844 3.277344 11.867188 0l77.152344-77.152344c3.179687-3.292968 3.136718-8.527343-.101563-11.765624-3.238281-3.238282-8.472656-3.28125-11.765625-.101563l-77.152344 77.152344c-3.277343 3.277343-3.277343 8.589843 0 11.867187zm0 0" fill="#FF4379"/></svg>
