<?xml version="1.0"?>
<svg xmlns="http://www.w3.org/2000/svg" height="512px" version="1.1" viewBox="0 -1 512.00002 512" width="512px">
<g id="surface1">
<path d="M 512 405.1875 L 383.113281 276.300781 L 392.273438 267.140625 L 353.082031 227.949219 L 369.167969 211.863281 L 379.964844 222.660156 L 443.695312 158.925781 L 284.769531 0 L 221.035156 63.734375 L 231.832031 74.527344 L 120.878906 185.480469 L 110.082031 174.6875 L 46.351562 238.417969 L 205.277344 397.34375 L 269.011719 333.613281 L 258.21875 322.816406 L 274.304688 306.730469 L 313.492188 345.921875 L 322.652344 336.761719 L 451.539062 465.648438 Z M 284.769531 42.414062 L 401.285156 158.925781 L 379.964844 180.246094 L 263.449219 63.734375 Z M 88.765625 238.417969 L 110.082031 217.097656 L 226.597656 333.613281 L 205.277344 354.933594 Z M 142.085938 206.6875 L 253.039062 95.734375 L 347.960938 190.65625 L 237.007812 301.613281 Z M 331.875 249.15625 L 349.859375 267.140625 L 313.492188 303.507812 L 295.507812 285.523438 Z M 361.90625 297.503906 L 469.585938 405.1875 L 451.539062 423.238281 L 343.855469 315.554688 Z M 361.90625 297.503906 " style=" fill-rule:nonzero;fill-opacity:1;" stroke="#FF4379" fill="#FF4379"/>
<path d="M 0 510.863281 L 270.914062 510.863281 L 270.914062 422.890625 L 0 422.890625 Z M 29.992188 452.878906 L 240.925781 452.878906 L 240.925781 480.871094 L 29.992188 480.871094 Z M 29.992188 452.878906 " style=" fill-rule:nonzero;fill-opacity:1;" stroke="#FF4379" fill="#FF4379"/>
</g>
</svg>
